<mxfile host="app.diagrams.net" modified="2024-05-04T11:29:23.081Z" agent="Mozilla/5.0 (Windows NT 10.0; Win64; x64) AppleWebKit/537.36 (KHTML, like Gecko) Chrome/122.0.0.0 YaBrowser/24.4.0.0 Safari/537.36" version="24.3.1" etag="6_oS2A5Pa_a4jBgcdi3w" type="github">
  <diagram name="Страница — 1" id="A8r4hmOSyhe4PhO5Mt6q">
    <mxGraphModel>
      <root>
        <mxCell id="0" />
        <mxCell id="1" parent="0" />
      </root>
    </mxGraphModel>
  </diagram>
</mxfile>
